# xmcd
#
# Track frame offsets: 
#        150
#        19181
#        32730
#        49003
#        61764
#        76345
#        93207
#        109116
#        125832
#        139023
#        153636
#        168160
#
# Disc length: 2501 seconds
#
# Revision: 0
# Processed by: cddbd v1.5.1PL2 Copyright (c) Steve Scherf et al.
# Submitted via: ExactAudioCopy v0.95b3
#
DISCID=9409c30c
DTITLE=Granger Smith - Pockets of Pesos
DYEAR=2005
DGENRE=Country
TTITLE0=Long Way From OK
TTITLE1='Til The Wheels Fall Off
TTITLE2=C'est La Vie
TTITLE3=Waste Of Whiskey
TTITLE4=Burnin' Up Mockingbird Rd
TTITLE5=The World Is Flat
TTITLE6=Lost In Love
TTITLE7=Before It All Comes Down
TTITLE8=No Chance For A Slow Dance
TTITLE9=16 Stitches
TTITLE10=I Still Miss Santa Fe
TTITLE11=Up There On The Roof
EXTD=
EXTT0=
EXTT1=
EXTT2=
EXTT3=
EXTT4=
EXTT5=
EXTT6=
EXTT7=
EXTT8=
EXTT9=
EXTT10=
EXTT11=
PLAYORDER=
